<?xml version="1.0" standalone="no"?>
<!DOCTYPE svg PUBLIC "-//W3C//DTD SVG 20010904//EN"
 "http://www.w3.org/TR/2001/REC-SVG-20010904/DTD/svg10.dtd">
<svg version="1.0" xmlns="http://www.w3.org/2000/svg"
 width="649.000000pt" height="520.000000pt" viewBox="0 0 649.000000 520.000000"
 preserveAspectRatio="xMidYMid meet">
<metadata>
Created by potrace 1.16, written by Peter Selinger 2001-2019
</metadata>
<g transform="translate(0.000000,520.000000) scale(0.100000,-0.100000)"
fill="#000000" stroke="none">
<path d="M3280 4491 c-53 -17 -112 -53 -145 -89 -19 -20 -209 -318 -421 -662
-212 -344 -612 -989 -887 -1435 -344 -555 -505 -826 -515 -860 -36 -136 42
-296 176 -358 l47 -22 1835 0 1835 0 50 24 c135 67 209 220 173 356 -13 46
-126 232 -1319 2160 -64 105 -196 318 -293 475 -97 157 -192 302 -211 322 -57
61 -126 91 -220 94 -44 2 -91 0 -105 -5z m182 -186 c34 -26 -1 29 536 -840
258 -418 506 -820 552 -893 45 -73 80 -135 79 -136 -2 -2 -159 -8 -349 -15
-190 -6 -410 -14 -488 -18 l-144 -6 4 23 c3 22 16 27 176 65 95 23 174 44 177
47 3 3 0 19 -6 37 -8 24 -16 31 -28 26 -29 -12 -329 -115 -334 -115 -3 0 -7 6
-10 14 -4 11 67 53 261 157 147 78 282 151 300 161 l32 20 -22 39 c-12 21 -25
39 -30 39 -7 0 -262 -165 -480 -311 -64 -44 -89 -55 -96 -46 -7 9 28 47 128
138 l138 127 -26 25 -27 26 -120 -134 c-69 -77 -126 -133 -135 -132 -8 2 -14
8 -13 15 2 6 84 136 183 288 137 209 178 279 168 286 -37 25 -71 39 -78 31 -4
-4 -76 -139 -161 -299 -126 -239 -156 -290 -171 -286 -10 2 -18 6 -18 9 0 4
99 328 107 350 5 12 -54 29 -65 19 -3 -4 -22 -84 -42 -179 -29 -134 -40 -173
-53 -175 -20 -4 -20 -34 -2 343 8 165 15 308 15 318 0 14 -9 17 -50 17 -41 0
-50 -3 -50 -17 0 -10 7 -151 15 -313 19 -384 20 -352 -7 -348 -20 3 -27 20
-64 176 -23 95 -43 175 -46 177 -3 3 -19 0 -37 -6 -24 -8 -31 -16 -26 -28 8
-20 105 -300 112 -322 2 -9 -2 -19 -10 -22 -12 -4 -47 52 -143 231 -69 130
-142 265 -161 300 l-35 62 -40 -22 c-25 -15 -38 -28 -35 -38 2 -9 85 -138 185
-287 138 -206 178 -274 169 -282 -10 -7 -38 18 -110 98 -53 59 -111 120 -127
136 l-30 29 -24 -24 -25 -25 134 -120 c126 -114 146 -137 127 -149 -5 -3 -136
78 -292 180 -211 138 -286 181 -292 172 -25 -37 -39 -71 -31 -78 4 -4 136 -75
293 -158 259 -136 309 -169 282 -186 -5 -3 -87 19 -183 49 -95 30 -174 53
-175 52 -1 -1 -5 -16 -8 -34 -9 -38 -21 -33 190 -77 124 -25 160 -36 162 -49
4 -21 20 -21 -353 -2 -159 8 -298 15 -307 15 -15 0 -18 -9 -18 -50 0 -48 1
-50 28 -50 15 0 158 7 317 15 371 19 337 19 333 -7 -3 -20 -20 -27 -176 -64
-95 -23 -175 -44 -178 -46 -2 -3 1 -19 7 -37 8 -24 16 -31 28 -26 9 4 88 31
175 61 124 43 161 52 167 42 5 -7 5 -16 1 -19 -4 -3 -135 -74 -292 -158 -157
-84 -288 -156 -292 -160 -4 -3 4 -25 18 -48 l25 -42 282 188 c208 139 285 186
295 178 10 -7 -6 -27 -65 -81 -43 -39 -105 -96 -138 -128 l-60 -57 25 -25 25
-25 120 134 c69 77 126 133 135 132 8 -2 14 -8 13 -15 -2 -6 -84 -136 -183
-288 -136 -208 -178 -279 -168 -286 37 -25 71 -39 78 -31 4 4 76 139 160 298
84 160 154 291 155 292 1 2 9 -3 18 -10 15 -11 11 -28 -38 -187 -30 -96 -53
-175 -51 -177 1 -2 16 -6 34 -9 36 -7 33 -14 78 210 26 125 41 162 60 143 3
-3 -2 -149 -10 -326 -9 -176 -16 -328 -16 -336 0 -11 12 -15 50 -15 41 0 50 3
50 18 0 9 -7 150 -15 312 -19 383 -20 352 7 348 19 -3 26 -21 63 -176 23 -95
44 -175 47 -177 3 -3 19 0 36 6 l31 11 -60 175 c-46 135 -57 178 -48 184 17
10 12 18 183 -301 81 -151 151 -278 154 -282 4 -4 26 4 49 17 l41 25 -184 277
c-101 153 -184 283 -184 288 -1 29 36 -2 144 -120 66 -71 120 -131 121 -132 1
-2 13 10 27 25 l26 27 -138 125 c-104 94 -136 128 -128 137 6 7 15 10 22 6 6
-4 134 -87 285 -186 206 -134 276 -175 283 -165 25 37 39 71 31 78 -4 4 -138
76 -298 160 -159 84 -291 153 -292 154 -2 1 3 10 10 19 11 14 29 10 186 -38
96 -30 176 -53 177 -52 1 1 5 16 8 33 5 22 3 33 -6 36 -7 3 -87 20 -177 39
-148 30 -187 46 -168 65 3 3 238 -2 523 -12 442 -14 521 -19 531 -32 7 -8 135
-214 285 -456 252 -406 273 -445 273 -486 0 -54 -29 -100 -79 -124 -31 -15
-193 -16 -1816 -16 -1623 0 -1785 1 -1816 16 -50 24 -79 70 -79 124 0 48 -23
9 603 1020 155 251 467 755 831 1345 360 583 344 559 384 579 43 22 134 17
169 -9z"/>
</g>
</svg>
